0
SECTION
2
HEADER
0
ENDSEC
0
SECTION
2
TABLES
0
ENDSEC
0
SECTION
2
BLOCKS
0
ENDSEC
0
SECTION
2
ENTITIES
0
LINE
8
Layer1
10
0.0
20
0.0
11
100.0
21
50.0
0
CIRCLE
8
Layer1
10
150.0
20
75.0
40
25.0
0
ARC
8
Layer1
10
200.0
20
100.0
40
50.0
50
0.0
51
180.0
0
ARC
8
L2
10
400.0
20
400.0
40
100.0
50
0.0
51
180.0
0
LINE
8
L2
10
300.0
20
400.0
11
300.0
21
700.0
0
LINE
8
L2
10
500.0
20
400.0
11
500.0
21
500.0
0
LINE
8
L2
10
500.0
20
500.0
11
600.0
21
500.0
0
LINE
8
L2
10
300.0
20
700.0
11
600.0
21
700.0
0
ARC
8
L2
10
600.0
20
600.0
40
100.0
50
90.0
51
-180.0
0
ENDSEC
0
EOF
